<?xml version="1.0" standalone="no"?><!DOCTYPE svg PUBLIC "-//W3C//DTD SVG 1.1//EN"
        "http://www.w3.org/Graphics/SVG/1.1/DTD/svg11.dtd">
<svg t="1665553374991" class="icon" viewBox="0 0 1024 1024" version="1.1" xmlns="http://www.w3.org/2000/svg" p-id="5902"
     xmlns:xlink="http://www.w3.org/1999/xlink" width="200" height="200">
    <path d="M480.87 834.69c-43.74 0-86.19-8.57-126.16-25.47-38.6-16.32-73.26-39.68-103.01-69.42-29.76-29.75-53.12-64.39-69.45-102.98-16.91-39.96-25.48-82.4-25.48-126.13s8.57-86.16 25.48-126.13c16.33-38.58 39.69-73.23 69.45-102.98 29.75-29.75 64.41-53.1 103.01-69.42 39.98-16.9 82.42-25.47 126.16-25.47s86.19 8.57 126.16 25.47c38.6 16.32 73.26 39.68 103.01 69.42s53.12 64.39 69.44 102.98c16.91 39.96 25.48 82.4 25.48 126.13h-61.28c0-70.18-27.34-136.16-76.98-185.79-49.64-49.62-115.64-76.95-185.84-76.95s-136.2 27.33-185.84 76.95c-49.64 49.63-76.98 115.61-76.98 185.79s27.34 136.16 76.98 185.79c49.64 49.63 115.64 76.96 185.84 76.96v61.25z"
          fill="#333333" p-id="5903"></path>
    <path d="M771.38 590.49l-95.39-95.36 43.33-43.32 52.06 52.05 52.06-52.05 43.33 43.32z" fill="#333333"
          p-id="5904"></path>
</svg>
